<svg xmlns="http://www.w3.org/2000/svg" xmlns:xlink="http://www.w3.org/1999/xlink" width="207" height="48" fill="none" viewBox="0 0 207 48"><filter id="a" width="48" height="54" x="0" y="-3" color-interpolation-filters="sRGB" filterUnits="userSpaceOnUse"><feFlood flood-opacity="0" result="BackgroundImageFix"/><feBlend in="SourceGraphic" in2="BackgroundImageFix" mode="normal" result="shape"/><feColorMatrix in="SourceAlpha" result="hardAlpha" type="matrix" values="0 0 0 0 0 0 0 0 0 0 0 0 0 0 0 0 0 0 127 0"/><feOffset dy="-3"/><feGaussianBlur stdDeviation="1.5"/><feComposite in2="hardAlpha" k2="-1" k3="1" operator="arithmetic"/><feColorMatrix type="matrix" values="0 0 0 0 0 0 0 0 0 0 0 0 0 0 0 0 0 0 0.1 0"/><feBlend in2="shape" mode="normal" result="effect1_innerShadow_3046_38737"/><feColorMatrix in="SourceAlpha" result="hardAlpha" type="matrix" values="0 0 0 0 0 0 0 0 0 0 0 0 0 0 0 0 0 0 127 0"/><feOffset dy="3"/><feGaussianBlur stdDeviation="1.5"/><feComposite in2="hardAlpha" k2="-1" k3="1" operator="arithmetic"/><feColorMatrix type="matrix" values="0 0 0 0 1 0 0 0 0 1 0 0 0 0 1 0 0 0 0.1 0"/><feBlend in2="effect1_innerShadow_3046_38737" mode="normal" result="effect2_innerShadow_3046_38737"/><feColorMatrix in="SourceAlpha" result="hardAlpha" type="matrix" values="0 0 0 0 0 0 0 0 0 0 0 0 0 0 0 0 0 0 127 0"/><feMorphology in="SourceAlpha" operator="erode" radius="1" result="effect3_innerShadow_3046_38737"/><feOffset/><feComposite in2="hardAlpha" k2="-1" k3="1" operator="arithmetic"/><feColorMatrix type="matrix" values="0 0 0 0 0.0627451 0 0 0 0 0.0941176 0 0 0 0 0.156863 0 0 0 0.24 0"/><feBlend in2="effect2_innerShadow_3046_38737" mode="normal" result="effect3_innerShadow_3046_38737"/></filter><filter id="b" width="33.757" height="44.333" x="7.161" y="4.208" color-interpolation-filters="sRGB" filterUnits="userSpaceOnUse"><feFlood flood-opacity="0" result="BackgroundImageFix"/><feColorMatrix in="SourceAlpha" result="hardAlpha" type="matrix" values="0 0 0 0 0 0 0 0 0 0 0 0 0 0 0 0 0 0 127 0"/><feMorphology in="SourceAlpha" operator="erode" radius="1.583" result="effect1_dropShadow_3046_38737"/><feOffset dy="2.375"/><feGaussianBlur stdDeviation="2.375"/><feComposite in2="hardAlpha" operator="out"/><feColorMatrix type="matrix" values="0 0 0 0 0.141176 0 0 0 0 0.141176 0 0 0 0 0.141176 0 0 0 0.1 0"/><feBlend in2="BackgroundImageFix" mode="normal" result="effect1_dropShadow_3046_38737"/><feBlend in="SourceGraphic" in2="effect1_dropShadow_3046_38737" mode="normal" result="shape"/></filter><linearGradient id="c" x1="24" x2="26" y1="0" y2="48" gradientUnits="userSpaceOnUse"><stop offset="0" stop-color="#fff" stop-opacity="0"/><stop offset="1" stop-color="#fff" stop-opacity=".12"/></linearGradient><linearGradient id="d"><stop offset="0" stop-color="#fff" stop-opacity=".8"/><stop offset="1" stop-color="#fff" stop-opacity=".5"/></linearGradient><linearGradient id="e" x1="33.806" x2="33.806" y1="16.083" y2="22.456" gradientUnits="userSpaceOnUse" xlink:href="#d"/><linearGradient id="f" x1="30.893" x2="30.893" y1="8.167" y2="20.641" gradientUnits="userSpaceOnUse" xlink:href="#d"/><linearGradient id="g" x1="17.185" x2="17.185" y1="8.167" y2="20.641" gradientUnits="userSpaceOnUse" xlink:href="#d"/><linearGradient id="h" x1="14.274" x2="14.274" y1="16.083" y2="31.916" gradientUnits="userSpaceOnUse" xlink:href="#d"/><linearGradient id="i" x1="17.183" x2="17.183" y1="27.359" y2="39.833" gradientUnits="userSpaceOnUse" xlink:href="#d"/><linearGradient id="j" x1="30.893" x2="30.893" y1="27.359" y2="39.833" gradientUnits="userSpaceOnUse" xlink:href="#d"/><linearGradient id="k" x1="33.806" x2="33.806" y1="25.544" y2="31.916" gradientUnits="userSpaceOnUse" xlink:href="#d"/><linearGradient id="l" x1="24" x2="24" y1="0" y2="48" gradientUnits="userSpaceOnUse"><stop offset="0" stop-color="#fff" stop-opacity=".12"/><stop offset="1" stop-color="#fff" stop-opacity="0"/></linearGradient><clipPath id="m"><rect width="48" height="48" rx="12"/></clipPath><g filter="url(#a)"><g clip-path="url(#m)"><rect width="48" height="48" fill="#1570ef" rx="12"/><path fill="url(#c)" d="m0 0h48v48h-48z"/><g fill-rule="evenodd" clip-rule="evenodd" filter="url(#b)"><path fill="url(#e)" d="m37.7521 16.0834v6.3723h-7.8927v-1.8151z"/><path fill="url(#f)" d="m37.7496 16.0834-7.8927 4.5572-5.8198-3.3595v-9.11447z" opacity=".9"/><path fill="url(#g)" d="m24.0407 8.16663v9.11447l-5.8179 3.3595-7.8927-4.5572z" opacity=".8"/><path fill="url(#h)" d="m18.2208 20.6406v6.7187l-7.8927 4.5569v-15.8328z" opacity=".7"/><path fill="url(#i)" d="m24.0388 30.7189v9.1145l-13.7107-7.9172 7.8927-4.5568z" opacity=".6"/><path fill="url(#j)" d="m37.7496 31.9162-13.7125 7.9172v-9.1145l5.8198-3.3595z" opacity=".5"/><path fill="url(#k)" d="m37.7521 25.5443v6.3719l-7.8927-4.5568v-1.8151z" opacity=".4"/></g></g><rect width="46" height="46" x="1" y="1" stroke="url(#l)" stroke-width="2" rx="11"/></g><g fill="#0c111d"><path d="m77.577 26.1149c-.783 4.617-3.753 7.317-8.343 7.317-5.67 0-9.234-4.32-9.234-9.99 0-5.697 3.564-10.044 9.234-10.044 4.428 0 7.425 2.592 8.262 7.02l-4.293.189c-.459-2.376-1.917-3.726-4.05-3.726-3.375 0-4.914 2.835-4.914 6.561 0 3.699 1.566 6.507 4.914 6.507 2.214 0 3.699-1.458 4.104-4.023z"/><path d="m78.7519 23.1179c.567-3.051 2.916-4.752 6.669-4.752 4.347 0 6.588 2.133 6.588 6.237v4.482c0 .945.378 1.134.891 1.134h.54v2.7811l-.729.0269c-.945.027-3.726.297-4.131-2.187-.675 1.458-2.322 2.484-4.914 2.484-2.889 0-5.13-1.566-5.13-4.077 0-2.673 1.971-3.672 5.427-4.374l3.942-.783c-.027-2.079-.837-3.051-2.484-3.051-1.377 0-2.241.756-2.565 2.295zm3.969 5.967c0 .891.756 1.593 2.214 1.593 1.755 0 3.024-1.323 3.024-3.888v-.162l-2.376.432c-1.647.324-2.862.567-2.862 2.025z"/><path d="m94.8747 13.8299h4.104v15.012c0 .702.378 1.107 1.0803 1.107h1.026v3.0511h-2.2143c-2.376 0-3.996-1.4311-3.996-3.9961z"/><path d="m101.741 25.8449c0-4.536 2.916-7.479 7.344-7.479 3.942 0 7.02 2.727 6.993 7.776v.756h-10.071c.108 2.133 1.242 3.402 3.078 3.402 1.188 0 2.241-.675 2.7-1.782l4.104.297c-.864 2.781-3.537 4.509-6.804 4.509-4.428 0-7.344-2.943-7.344-7.479zm4.293-1.404h5.913c-.216-2.16-1.458-3.051-2.862-3.051-1.728 0-2.835 1.161-3.051 3.051z"/><path d="m126.375 23.3339c-.216-1.323-1.35-2.133-2.592-2.133-1.215 0-2.16.648-2.106 1.674.054 1.053 1.269 1.512 2.619 1.728 4.212.675 6.291 1.782 6.291 4.482 0 2.862-2.7 4.239-6.372 4.239-4.185 0-6.858-1.809-7.074-4.86l4.104-.216c.243 1.377 1.242 2.2141 2.889 2.2141 1.026 0 2.268-.4321 2.268-1.4581-.027-1.215-1.404-1.431-2.781-1.728-3.942-.756-6.156-1.728-6.156-4.374 0-2.862 2.403-4.563 6.48-4.563 3.618 0 6.048 1.836 6.534 4.833z"/><path d="m141.796 24.1709c-.243-1.728-1.377-2.673-2.808-2.673-2.025 0-3.159 1.593-3.159 4.347s1.134 4.347 3.159 4.347c1.512 0 2.619-.945 2.862-2.808l4.212.162c-.378 3.564-3.267 5.778-7.074 5.778-4.428 0-7.344-2.943-7.344-7.479s2.916-7.479 7.344-7.479c3.699 0 6.615 2.133 6.993 5.616z"/><path d="m146.806 25.8449c0-4.536 2.916-7.479 7.344-7.479 3.942 0 7.02 2.727 6.993 7.776v.756h-10.071c.108 2.133 1.242 3.402 3.078 3.402 1.188 0 2.241-.675 2.7-1.782l4.104.297c-.864 2.781-3.537 4.509-6.804 4.509-4.428 0-7.344-2.943-7.344-7.479zm4.293-1.404h5.913c-.216-2.16-1.458-3.051-2.862-3.051-1.728 0-2.835 1.161-3.051 3.051z"/><path d="m162.67 18.6899h3.672l.108 2.295c.783-1.89 2.376-2.619 4.266-2.619 3.132 0 4.941 2.106 4.941 5.427v9.2071h-4.077v-7.8571c0-2.268-.513-3.537-2.187-3.537-1.728 0-2.619 1.269-2.619 3.537v7.8571h-4.104z"/><path d="m187.203 24.1709c-.243-1.728-1.377-2.673-2.808-2.673-2.025 0-3.159 1.593-3.159 4.347s1.134 4.347 3.159 4.347c1.512 0 2.619-.945 2.862-2.808l4.212.162c-.378 3.564-3.267 5.778-7.074 5.778-4.428 0-7.344-2.943-7.344-7.479s2.916-7.479 7.344-7.479c3.699 0 6.615 2.133 6.993 5.616z"/><path d="m192.213 25.8449c0-4.536 2.916-7.479 7.344-7.479 3.942 0 7.02 2.727 6.993 7.776v.756h-10.071c.108 2.133 1.242 3.402 3.078 3.402 1.188 0 2.241-.675 2.7-1.782l4.104.297c-.864 2.781-3.537 4.509-6.804 4.509-4.428 0-7.344-2.943-7.344-7.479zm4.293-1.404h5.913c-.216-2.16-1.458-3.051-2.862-3.051-1.728 0-2.835 1.161-3.051 3.051z"/></g></svg>